<svg aria-hidden="true" style="position: absolute; width: 0; height: 0; overflow: hidden;" version="1.1" xmlns="http://www.w3.org/2000/svg" xmlns:xlink="http://www.w3.org/1999/xlink">
<defs>
<symbol id="icon-logo" viewBox="0 0 97 32">
<path d="M16.687 20.398c-0.039-0.077-0.069-0.136-0.1-0.195-0.377-0.724-1.287-1.195-2.094-1.083-0.693 0.095-1.271 0.672-1.474 1.486-0.219 0.878-0.061 1.724 0.255 2.546 0.515 1.341 1.33 2.489 2.334 3.504 0.695 0.702 1.248 0.69 1.932-0.024 0.949-0.992 1.719-2.105 2.254-3.374 0.315-0.748 0.547-1.518 0.582-2.335 0.025-0.591-0.051-1.159-0.387-1.666-0.427-0.644-1.129-0.833-1.82-0.493-0.429 0.211-0.769 0.527-1.037 0.918-0.154 0.224-0.288 0.462-0.446 0.718zM30.054 24.168c-0.016 1.106-0.265 2.16-0.774 3.139-0.864 1.661-2.114 2.948-3.788 3.811-1.65 0.851-3.341 0.948-5.068 0.271-0.701-0.275-1.401-0.559-2.084-0.874-1.242-0.573-2.48-0.567-3.75-0.092-0.892 0.334-1.798 0.639-2.713 0.904-0.948 0.274-1.923 0.374-2.912 0.262-0.855-0.097-1.577-0.476-2.203-1.049-0.798-0.731-1.437-1.584-1.839-2.59-0.516-1.289-0.392-2.533 0.359-3.708 0.589-0.92 1.383-1.654 2.153-2.413 0.56-0.552 1.107-1.119 1.623-1.711 0.595-0.684 0.95-1.51 1.244-2.358 0.273-0.787 0.521-1.583 0.791-2.371 0.195-0.57 0.552-1.043 0.906-1.523 0.851-1.156 2.064-1.662 3.403-1.959 1.588-0.353 2.972 0.102 4.152 1.147 0.727 0.643 1.355 1.395 2.032 2.095 1.152 1.192 2.374 2.305 3.743 3.246 0.681 0.468 1.397 0.888 2.072 1.363 0.967 0.681 1.783 1.506 2.28 2.603 0.261 0.574 0.364 1.183 0.373 1.81z"></path>
<path d="M14.463 7.77c0.003 0.885-0.154 1.841-0.574 2.739-0.449 0.961-1.098 1.72-2.167 2.016-0.879 0.243-1.69 0.047-2.447-0.425-0.995-0.621-1.668-1.523-2.169-2.561-0.727-1.506-1.007-3.1-0.858-4.765 0.088-0.984 0.366-1.903 0.916-2.74 0.948-1.442 2.652-1.85 4.133-0.972 0.961 0.57 1.634 1.401 2.146 2.372 0.698 1.323 1.030 2.739 1.019 4.336z"></path>
<path d="M24.808 5.132c0.002 1.804-0.331 3.317-1.152 4.702-0.459 0.774-1.045 1.433-1.857 1.857-1.186 0.62-2.491 0.393-3.422-0.576-0.737-0.767-1.137-1.701-1.351-2.723-0.37-1.767-0.179-3.492 0.447-5.171 0.303-0.812 0.745-1.556 1.381-2.156 0.586-0.553 1.253-0.986 2.085-1.055 1.058-0.088 1.889 0.361 2.553 1.153 0.685 0.817 1.026 1.786 1.196 2.82 0.073 0.446 0.095 0.9 0.12 1.148z"></path>
<path d="M0 13.828c0.015-0.806 0.168-1.563 0.647-2.22 0.626-0.859 1.502-1.175 2.537-1.111 1.047 0.066 1.939 0.518 2.74 1.156 1.426 1.137 2.369 2.589 2.744 4.385 0.166 0.795 0.178 1.597-0.1 2.371-0.478 1.331-1.568 2.018-2.989 1.908-0.884-0.068-1.662-0.422-2.376-0.925-1.539-1.085-2.53-2.559-3.031-4.361-0.108-0.387-0.118-0.801-0.173-1.203z"></path>
<path d="M32.376 11.314c-0.238 2.502-1.256 4.436-3.231 5.83-0.548 0.387-1.165 0.611-1.838 0.679-1.139 0.115-2.174-0.526-2.602-1.623-0.376-0.964-0.354-1.951-0.118-2.933 0.455-1.89 1.471-3.417 3.068-4.536 0.707-0.495 1.509-0.698 2.371-0.626 1.002 0.084 1.85 0.836 2.143 1.942 0.118 0.447 0.152 0.917 0.207 1.267z"></path>
<path d="M79.311 19.614h2.303l-3.037 3.675 3.305 3.99h-2.372l-3.133-3.887v3.887h-2.091v-7.665h2.091v3.723l2.934-3.723z"></path>
<path d="M72.839 23.433c0 0.64-0.087 1.207-0.261 1.7-0.169 0.494-0.418 0.912-0.747 1.255-0.324 0.338-0.718 0.594-1.179 0.768-0.457 0.174-0.974 0.261-1.55 0.261-0.539 0-1.035-0.087-1.488-0.261-0.447-0.174-0.838-0.43-1.172-0.768-0.329-0.343-0.585-0.761-0.767-1.255-0.178-0.494-0.268-1.060-0.268-1.7 0-0.85 0.151-1.57 0.452-2.16s0.732-1.037 1.289-1.344c0.558-0.306 1.223-0.459 1.995-0.459 0.718 0 1.353 0.153 1.906 0.459 0.558 0.306 0.994 0.754 1.31 1.344 0.32 0.59 0.48 1.309 0.48 2.16zM67.54 23.433c0 0.503 0.055 0.926 0.164 1.268s0.281 0.601 0.514 0.775c0.233 0.174 0.537 0.261 0.911 0.261 0.37 0 0.67-0.087 0.898-0.261 0.233-0.174 0.402-0.432 0.507-0.775 0.11-0.343 0.165-0.766 0.165-1.268 0-0.507-0.055-0.928-0.165-1.261-0.105-0.338-0.274-0.592-0.507-0.761s-0.537-0.254-0.912-0.254c-0.553 0-0.955 0.19-1.207 0.569-0.247 0.379-0.37 0.948-0.37 1.707z"></path>
<path d="M63.961 19.614v7.665h-2.098v-6.095h-2.777v6.095h-2.091v-7.665h6.965z"></path>
<path d="M51.927 19.456c1.028 0 1.817 0.224 2.365 0.672s0.823 1.129 0.823 2.043v5.108h-1.46l-0.404-1.042h-0.055c-0.219 0.274-0.443 0.498-0.672 0.672s-0.491 0.302-0.788 0.384c-0.297 0.082-0.658 0.123-1.083 0.123-0.452 0-0.859-0.087-1.22-0.261-0.356-0.174-0.638-0.439-0.843-0.795-0.206-0.361-0.309-0.818-0.309-1.371 0-0.814 0.286-1.412 0.857-1.796 0.571-0.389 1.428-0.603 2.571-0.644l1.33-0.041v-0.336c0-0.402-0.105-0.697-0.315-0.884s-0.503-0.281-0.878-0.281c-0.37 0-0.734 0.053-1.090 0.158s-0.713 0.238-1.069 0.398l-0.692-1.412c0.407-0.215 0.862-0.384 1.364-0.507 0.507-0.123 1.031-0.185 1.57-0.185zM53.038 23.727l-0.809 0.027c-0.676 0.018-1.147 0.139-1.412 0.363-0.261 0.224-0.391 0.519-0.391 0.884 0 0.32 0.094 0.549 0.281 0.686 0.187 0.133 0.432 0.199 0.734 0.199 0.448 0 0.825-0.133 1.131-0.398 0.311-0.265 0.466-0.642 0.466-1.131v-0.631z"></path>
<path d="M46.703 27.279h-2.118v-8.254h-2.454c-0.055 0.43-0.114 0.898-0.178 1.405s-0.13 1.019-0.199 1.536c-0.069 0.516-0.142 1.008-0.219 1.474-0.073 0.466-0.146 0.875-0.219 1.227-0.119 0.585-0.281 1.083-0.487 1.495-0.201 0.407-0.478 0.718-0.83 0.932-0.347 0.215-0.802 0.322-1.364 0.322-0.187 0-0.368-0.014-0.542-0.041-0.169-0.027-0.327-0.064-0.473-0.11v-1.741c0.119 0.041 0.238 0.075 0.356 0.103 0.119 0.023 0.249 0.034 0.391 0.034 0.183 0 0.334-0.059 0.452-0.178 0.123-0.123 0.233-0.331 0.329-0.624 0.096-0.297 0.192-0.706 0.288-1.227 0.041-0.229 0.096-0.551 0.165-0.967 0.069-0.421 0.146-0.912 0.233-1.474 0.087-0.567 0.176-1.184 0.267-1.851 0.096-0.667 0.187-1.362 0.274-2.084h6.328v10.023z"></path>
<path d="M93.798 6.62c1.028 0 1.817 0.224 2.365 0.672s0.823 1.129 0.823 2.043v5.107h-1.46l-0.404-1.042h-0.055c-0.22 0.274-0.443 0.498-0.672 0.672s-0.491 0.302-0.788 0.384-0.658 0.123-1.083 0.123c-0.452 0-0.859-0.087-1.22-0.261-0.357-0.174-0.638-0.439-0.844-0.795-0.206-0.361-0.308-0.818-0.308-1.371 0-0.814 0.286-1.412 0.857-1.796 0.571-0.389 1.428-0.603 2.57-0.644l1.33-0.041v-0.336c0-0.402-0.105-0.697-0.316-0.884s-0.503-0.281-0.878-0.281c-0.37 0-0.734 0.053-1.090 0.158s-0.713 0.238-1.070 0.398l-0.692-1.412c0.407-0.215 0.862-0.384 1.364-0.507 0.507-0.123 1.031-0.185 1.57-0.185zM94.908 10.891l-0.809 0.027c-0.676 0.018-1.147 0.139-1.412 0.363-0.26 0.224-0.391 0.519-0.391 0.884 0 0.32 0.094 0.548 0.281 0.686 0.187 0.133 0.432 0.199 0.734 0.199 0.448 0 0.825-0.133 1.131-0.398 0.311-0.265 0.466-0.642 0.466-1.131v-0.631z"></path>
<path d="M87.27 6.777h2.303l-3.038 3.675 3.305 3.99h-2.372l-3.134-3.887v3.887h-2.091v-7.665h2.091v3.723l2.935-3.723z"></path>
<path d="M75.321 6.777v2.948h2.921v-2.948h2.091v7.665h-2.091v-3.161h-2.921v3.16h-2.091v-7.665h2.091z"></path>
<path d="M65.414 6.777v3.030c0 0.155-0.007 0.352-0.020 0.59-0.009 0.233-0.023 0.471-0.041 0.713s-0.036 0.459-0.055 0.651c-0.018 0.192-0.032 0.322-0.041 0.391l3.538-5.375h2.516v7.665h-2.022v-3.058c0-0.251 0.009-0.528 0.027-0.83 0.018-0.306 0.039-0.594 0.062-0.864s0.039-0.473 0.047-0.61l-3.524 5.361h-2.509v-7.665h2.022z"></path>
<path d="M62.24 8.347h-2.509v6.095h-2.091v-6.095h-2.516v-1.57h7.116v1.57z"></path>
<path d="M50.832 6.62c1.028 0 1.817 0.224 2.365 0.672s0.823 1.129 0.823 2.043v5.107h-1.46l-0.404-1.042h-0.055c-0.219 0.274-0.443 0.498-0.672 0.672s-0.491 0.302-0.788 0.384c-0.297 0.082-0.658 0.123-1.083 0.123-0.453 0-0.859-0.087-1.22-0.261-0.356-0.174-0.638-0.439-0.843-0.795-0.206-0.361-0.309-0.818-0.309-1.371 0-0.814 0.286-1.412 0.857-1.796 0.571-0.389 1.428-0.603 2.571-0.644l1.33-0.041v-0.336c0-0.402-0.105-0.697-0.315-0.884s-0.503-0.281-0.878-0.281c-0.37 0-0.734 0.053-1.090 0.158s-0.713 0.238-1.070 0.398l-0.692-1.412c0.407-0.215 0.862-0.384 1.364-0.507 0.507-0.123 1.031-0.185 1.57-0.185zM51.942 10.891l-0.809 0.027c-0.676 0.018-1.147 0.139-1.412 0.363-0.261 0.224-0.391 0.519-0.391 0.884 0 0.32 0.094 0.548 0.281 0.686 0.187 0.133 0.432 0.199 0.734 0.199 0.448 0 0.825-0.133 1.131-0.398 0.311-0.265 0.466-0.642 0.466-1.131v-0.631z"></path>
<path d="M46.876 14.442h-2.427l-2.331-3.791-2.331 3.791h-2.276l3.325-5.169-3.113-4.854h2.345l2.16 3.606 2.118-3.606h2.29l-3.147 4.97 3.387 5.053z"></path>
</symbol>
<symbol id="icon-burger-menu" viewBox="0 0 47 32">
<path d="M2.097 30.628c-0.592 0-1.089-0.203-1.492-0.608s-0.604-0.91-0.604-1.514c0-0.595 0.201-1.091 0.604-1.489s0.9-0.596 1.492-0.596h40.85c0.592 0 1.092 0.203 1.5 0.608s0.612 0.905 0.612 1.5c0 0.605-0.204 1.106-0.612 1.503s-0.908 0.597-1.5 0.597h-40.85zM2.097 17.41c-0.592 0-1.089-0.203-1.492-0.608s-0.604-0.905-0.604-1.5c0-0.594 0.201-1.091 0.604-1.489s0.9-0.597 1.492-0.597h40.85c0.592 0 1.092 0.203 1.5 0.608s0.612 0.905 0.612 1.5c0 0.594-0.204 1.091-0.612 1.489s-0.908 0.597-1.5 0.597h-40.85zM2.097 4.207c-0.592 0-1.089-0.202-1.492-0.607s-0.604-0.91-0.604-1.514c0-0.595 0.201-1.091 0.604-1.489s0.9-0.597 1.492-0.597h40.85c0.592 0 1.092 0.202 1.5 0.607s0.612 0.905 0.612 1.5c0 0.605-0.204 1.106-0.612 1.504s-0.908 0.596-1.5 0.596h-40.85z"></path>
</symbol>
<symbol id="icon-close-btn" viewBox="0 0 32 32">
<path stroke-linejoin="miter" stroke-linecap="butt" stroke-miterlimit="4" stroke-width="2.2857" d="M27.828 1.143c0.376 0 0.609 0.111 0.792 0.295s0.294 0.416 0.295 0.79c0 0.375-0.111 0.609-0.295 0.792l-12.009 12.009 12.009 12.007c0.184 0.184 0.295 0.417 0.295 0.792s-0.111 0.609-0.295 0.792-0.417 0.295-0.792 0.295c-0.375 0-0.609-0.111-0.792-0.295l-12.007-12.009-12.009 12.009c-0.184 0.184-0.417 0.295-0.792 0.295s-0.607-0.111-0.79-0.295c-0.184-0.184-0.295-0.417-0.295-0.792s0.111-0.609 0.295-0.792l12.007-12.007-12.007-12.009c-0.184-0.184-0.295-0.417-0.295-0.792s0.111-0.607 0.295-0.79 0.415-0.294 0.79-0.295c0.375 0 0.609 0.111 0.792 0.295l12.009 12.007 12.007-12.007c0.184-0.184 0.417-0.295 0.792-0.295z"></path>
</symbol>
<symbol id="icon-facebook" viewBox="0 0 32 32">
<path d="M31.605 15.899c0-8.781-7.075-15.899-15.803-15.899s-15.802 7.118-15.802 15.899c0 7.936 5.779 14.513 13.333 15.706v-11.11h-4.012v-4.596h4.012v-3.503c0-3.985 2.359-6.186 5.969-6.186 1.729 0 3.537 0.311 3.537 0.311v3.913h-1.993c-1.963 0-2.575 1.226-2.575 2.483v2.982h4.383l-0.7 4.596h-3.682v11.11c7.555-1.193 13.333-7.77 13.333-15.706z"></path>
</symbol>
<symbol id="icon-instagram" viewBox="0 0 32 32">
<path d="M15.998 2.882c4.274 0 4.78 0.019 6.461 0.094 1.563 0.069 2.406 0.331 2.969 0.55 0.744 0.288 1.281 0.638 1.837 1.194 0.563 0.563 0.906 1.094 1.2 1.838 0.219 0.563 0.481 1.412 0.55 2.969 0.075 1.688 0.094 2.194 0.094 6.462s-0.019 4.78-0.094 6.462c-0.069 1.563-0.331 2.406-0.55 2.969-0.288 0.744-0.637 1.281-1.194 1.837-0.563 0.563-1.094 0.906-1.837 1.2-0.563 0.219-1.413 0.481-2.969 0.55-1.688 0.075-2.194 0.094-6.462 0.094s-4.78-0.019-6.462-0.094c-1.563-0.069-2.406-0.331-2.969-0.55-0.744-0.288-1.281-0.637-1.838-1.194-0.563-0.563-0.906-1.094-1.2-1.837-0.219-0.563-0.481-1.413-0.55-2.969-0.075-1.688-0.094-2.194-0.094-6.462s0.019-4.78 0.094-6.462c0.069-1.563 0.331-2.406 0.55-2.969 0.288-0.744 0.638-1.281 1.194-1.838 0.563-0.563 1.094-0.906 1.838-1.2 0.563-0.219 1.412-0.481 2.969-0.55 1.681-0.075 2.189-0.094 6.463-0.094zM15.998 0.001c-4.343 0-4.886 0.019-6.593 0.094-1.7 0.075-2.869 0.35-3.88 0.744-1.056 0.412-1.95 0.956-2.837 1.85-0.894 0.888-1.438 1.781-1.85 2.831-0.394 1.019-0.669 2.181-0.744 3.88-0.075 1.713-0.094 2.256-0.094 6.599s0.019 4.886 0.094 6.593c0.075 1.7 0.35 2.869 0.744 3.881 0.413 1.056 0.956 1.95 1.85 2.837 0.887 0.887 1.781 1.438 2.831 1.844 1.019 0.394 2.181 0.669 3.88 0.744 1.706 0.075 2.25 0.094 6.593 0.094s4.887-0.019 6.593-0.094c1.7-0.075 2.869-0.35 3.881-0.744 1.050-0.406 1.944-0.956 2.831-1.844s1.438-1.781 1.844-2.831c0.394-1.019 0.669-2.181 0.744-3.881 0.075-1.706 0.094-2.25 0.094-6.593s-0.019-4.886-0.094-6.593c-0.075-1.7-0.35-2.869-0.744-3.88-0.394-1.063-0.938-1.956-1.831-2.844-0.887-0.887-1.781-1.438-2.831-1.844-1.019-0.394-2.181-0.669-3.881-0.744-1.712-0.081-2.256-0.1-6.599-0.1l-0.001 0.001z"></path>
<path d="M15.996 7.781c-4.536 0-8.218 3.681-8.218 8.218s3.681 8.218 8.218 8.218c4.537 0 8.218-3.681 8.218-8.218 0-4.536-3.681-8.218-8.218-8.218zM15.996 21.329c-2.944 0-5.33-2.387-5.33-5.33s2.387-5.33 5.33-5.33c2.944 0 5.33 2.387 5.33 5.33s-2.387 5.33-5.33 5.33z"></path>
<path d="M26.456 7.456c0 1.060-0.859 1.919-1.919 1.919s-1.919-0.859-1.919-1.919c0-1.060 0.859-1.919 1.919-1.919s1.919 0.859 1.919 1.919z"></path>
</symbol>
<symbol id="icon-left" viewBox="0 0 32 32">
<path d="M5.817 17.331l11.004 11.003c0.34 0.341 0.512 0.741 0.515 1.2s-0.164 0.861-0.503 1.204c-0.34 0.344-0.741 0.514-1.204 0.51s-0.865-0.176-1.207-0.516l-13.9-13.9c-0.182-0.184-0.314-0.375-0.397-0.574s-0.124-0.41-0.124-0.633 0.042-0.434 0.124-0.631c0.083-0.198 0.215-0.389 0.397-0.572l13.912-13.912c0.352-0.34 0.755-0.509 1.208-0.509s0.851 0.17 1.191 0.509c0.34 0.348 0.509 0.75 0.509 1.204s-0.17 0.853-0.509 1.195l-11.015 11.015h24.405c0.488 0 0.896 0.162 1.224 0.485s0.491 0.729 0.491 1.219-0.164 0.895-0.491 1.219c-0.328 0.323-0.736 0.485-1.224 0.485h-24.405z"></path>
</symbol>
<symbol id="icon-plus" viewBox="0 0 32 32">
<path d="M13.435 17.082h-11.618c-0.513 0-0.944-0.176-1.293-0.527s-0.524-0.784-0.524-1.3c0-0.515 0.175-0.945 0.524-1.29s0.78-0.517 1.293-0.517h11.618v-11.618c0-0.512 0.176-0.945 0.527-1.299s0.784-0.531 1.3-0.531c0.515 0 0.945 0.177 1.29 0.531s0.517 0.787 0.517 1.299v11.618h11.618c0.512 0 0.945 0.176 1.299 0.527s0.531 0.784 0.531 1.3c0 0.515-0.177 0.945-0.531 1.29s-0.787 0.517-1.299 0.517h-11.618v11.618c0 0.513-0.176 0.944-0.527 1.293s-0.784 0.524-1.3 0.524c-0.515 0-0.945-0.174-1.29-0.524s-0.517-0.78-0.517-1.293v-11.618z"></path>
</symbol>
<symbol id="icon-right" viewBox="0 0 32 32">
<path d="M26.109 17.325h-24.405c-0.489 0-0.895-0.162-1.218-0.485s-0.485-0.73-0.485-1.219 0.162-0.895 0.485-1.219c0.323-0.323 0.729-0.485 1.218-0.485h24.405l-11.004-11.003c-0.34-0.34-0.512-0.74-0.517-1.202s0.163-0.863 0.504-1.204c0.341-0.343 0.742-0.512 1.204-0.508s0.865 0.176 1.207 0.515l13.9 13.9c0.182 0.184 0.314 0.375 0.397 0.574s0.125 0.41 0.125 0.633-0.042 0.433-0.125 0.631c-0.083 0.198-0.215 0.389-0.397 0.573l-13.912 13.9c-0.352 0.348-0.755 0.521-1.209 0.521s-0.851-0.175-1.191-0.524c-0.34-0.34-0.509-0.738-0.509-1.193s0.17-0.851 0.509-1.191l11.015-11.015z"></path>
</symbol>
<symbol id="icon-logo-minus-text" viewBox="0 0 33 32">
<path d="M16.687 20.398c-0.039-0.077-0.069-0.136-0.1-0.195-0.377-0.724-1.287-1.195-2.094-1.083-0.693 0.095-1.271 0.672-1.474 1.486-0.219 0.878-0.061 1.724 0.255 2.546 0.515 1.341 1.33 2.489 2.334 3.504 0.695 0.702 1.248 0.69 1.932-0.024 0.949-0.992 1.719-2.105 2.254-3.374 0.315-0.748 0.547-1.518 0.582-2.335 0.025-0.591-0.051-1.159-0.387-1.666-0.427-0.644-1.129-0.833-1.82-0.493-0.429 0.211-0.769 0.527-1.037 0.918-0.154 0.224-0.288 0.462-0.446 0.718zM30.054 24.168c-0.016 1.106-0.265 2.16-0.774 3.139-0.864 1.661-2.114 2.948-3.788 3.811-1.65 0.851-3.341 0.948-5.068 0.271-0.701-0.275-1.401-0.559-2.084-0.874-1.242-0.573-2.48-0.567-3.75-0.092-0.892 0.334-1.798 0.639-2.713 0.904-0.948 0.274-1.923 0.374-2.912 0.262-0.855-0.097-1.577-0.476-2.203-1.049-0.798-0.731-1.437-1.584-1.839-2.59-0.516-1.289-0.392-2.533 0.359-3.708 0.589-0.92 1.383-1.654 2.153-2.413 0.56-0.552 1.107-1.119 1.623-1.711 0.595-0.684 0.95-1.51 1.244-2.358 0.273-0.787 0.521-1.583 0.791-2.371 0.195-0.57 0.552-1.043 0.906-1.523 0.851-1.156 2.064-1.662 3.403-1.959 1.588-0.353 2.972 0.102 4.152 1.147 0.727 0.643 1.355 1.395 2.032 2.095 1.152 1.192 2.374 2.305 3.743 3.246 0.681 0.468 1.397 0.888 2.072 1.363 0.967 0.681 1.783 1.506 2.28 2.603 0.261 0.574 0.364 1.183 0.373 1.81z"></path>
<path d="M14.463 7.77c0.003 0.885-0.154 1.841-0.574 2.739-0.449 0.961-1.098 1.72-2.167 2.016-0.879 0.243-1.69 0.047-2.447-0.425-0.995-0.621-1.668-1.523-2.169-2.561-0.727-1.506-1.007-3.1-0.858-4.765 0.088-0.984 0.366-1.903 0.916-2.74 0.948-1.442 2.652-1.85 4.133-0.972 0.961 0.57 1.634 1.401 2.146 2.372 0.698 1.323 1.030 2.739 1.019 4.336z"></path>
<path d="M24.808 5.132c0.002 1.804-0.331 3.317-1.152 4.702-0.459 0.774-1.045 1.433-1.857 1.857-1.186 0.62-2.491 0.393-3.422-0.576-0.737-0.767-1.137-1.701-1.351-2.723-0.37-1.767-0.179-3.492 0.447-5.171 0.303-0.812 0.745-1.556 1.381-2.156 0.586-0.553 1.253-0.986 2.085-1.055 1.058-0.088 1.889 0.361 2.553 1.153 0.685 0.817 1.026 1.786 1.196 2.82 0.073 0.446 0.095 0.9 0.12 1.148z"></path>
<path d="M0 13.828c0.015-0.806 0.168-1.563 0.647-2.22 0.626-0.859 1.502-1.175 2.537-1.111 1.047 0.066 1.939 0.518 2.74 1.156 1.426 1.137 2.369 2.589 2.744 4.385 0.166 0.795 0.178 1.597-0.1 2.371-0.478 1.331-1.568 2.018-2.989 1.908-0.884-0.068-1.662-0.422-2.376-0.925-1.539-1.085-2.53-2.559-3.031-4.361-0.108-0.387-0.118-0.801-0.173-1.203z"></path>
<path d="M32.376 11.314c-0.238 2.502-1.256 4.436-3.231 5.83-0.548 0.387-1.165 0.611-1.838 0.679-1.139 0.115-2.174-0.526-2.602-1.623-0.376-0.964-0.354-1.951-0.118-2.933 0.455-1.89 1.471-3.417 3.068-4.536 0.707-0.495 1.509-0.698 2.371-0.626 1.002 0.084 1.85 0.836 2.143 1.942 0.118 0.447 0.152 0.917 0.207 1.267z"></path>
</symbol>
</defs>
</svg>
